<svg width="32" height="32" viewBox="0 0 32 32" fill="none" xmlns="http://www.w3.org/2000/svg">
<mask id="mask0_2265_536" style="mask-type:alpha" maskUnits="userSpaceOnUse" x="0" y="0" width="32" height="32">
<rect width="32" height="32" fill="#D9D9D9"/>
</mask>
<g mask="url(#mask0_2265_536)">
<path d="M16.1332 29.3339C14.2665 29.3339 12.5165 28.9783 10.8832 28.2672C9.24984 27.5561 7.82761 26.595 6.6165 25.3839C5.40539 24.1728 4.44428 22.7505 3.73317 21.1172C3.02206 19.4839 2.6665 17.7339 2.6665 15.8672C2.6665 13.0227 3.4665 10.445 5.0665 8.13386C6.6665 5.82275 8.81095 4.20053 11.4998 3.26719C11.9887 3.08942 12.4443 3.15053 12.8665 3.45053C13.2887 3.75053 13.4887 4.15608 13.4665 4.66719C13.3998 6.55608 13.6998 8.35608 14.3665 10.0672C15.0332 11.7783 16.0332 13.3005 17.3665 14.6339C18.6998 15.9672 20.2221 16.9672 21.9332 17.6339C23.6443 18.3005 25.4443 18.6005 27.3332 18.5339C27.9109 18.5116 28.3387 18.7061 28.6165 19.1172C28.8943 19.5283 28.9443 19.9894 28.7665 20.5005C27.7887 23.1672 26.1498 25.3061 23.8498 26.9172C21.5498 28.5283 18.9776 29.3339 16.1332 29.3339Z" fill="#3F2525"/>
</g>
</svg>
