<svg width="6608" height="1896" viewBox="0 0 6608 1896" fill="none" xmlns="http://www.w3.org/2000/svg">
<path d="M2389.2 1262V615.2H2486C2516.51 615.2 2542.32 620.187 2563.44 630.16C2584.56 640.133 2601.57 657.147 2614.48 681.2C2627.39 705.253 2636.63 738.253 2642.2 780.2C2648.07 822.147 2651 875.093 2651 939.04C2651 1003.28 2648.07 1056.37 2642.2 1098.32C2636.63 1139.97 2627.39 1172.83 2614.48 1196.88C2601.57 1220.64 2584.56 1237.51 2563.44 1247.48C2542.32 1257.16 2516.51 1262 2486 1262H2389.2ZM2484.24 1166.96C2507.71 1166.96 2524.28 1157.72 2533.96 1139.24C2543.64 1120.76 2549.51 1094.36 2551.56 1060.04C2553.61 1025.72 2554.64 984.947 2554.64 937.72C2554.64 889.907 2553.61 849.133 2551.56 815.4C2549.51 781.373 2543.49 755.413 2533.52 737.52C2523.84 719.333 2507.41 710.24 2484.24 710.24V1166.96ZM2716.62 1262V615.2H2811.66V1262H2716.62ZM2882.48 1262V615.2H2977.52C3013.6 615.2 3043.67 623.12 3067.72 638.96C3092.07 654.8 3110.25 677.24 3122.28 706.28C3134.31 735.32 3140.32 769.493 3140.32 808.8C3140.32 848.107 3134.01 881.987 3121.4 910.44C3108.79 938.893 3090.31 961.187 3065.96 977.32C3041.91 993.16 3012.43 1001.81 2977.52 1003.28V1262H2882.48ZM2977.52 906.48C2994.24 906.48 3007.44 903.253 3017.12 896.8C3026.8 890.053 3033.69 879.493 3037.8 865.12C3042.2 850.747 3044.4 832.267 3044.4 809.68C3044.4 786.8 3042.2 768.173 3037.8 753.8C3033.69 739.427 3026.65 728.867 3016.68 722.12C3007 715.373 2993.95 712 2977.52 712V906.48ZM3191.86 1262V615.2H3286.9V1174H3412.74V1262H3191.86ZM3575.5 1269.12C3548.8 1269.12 3525.81 1262.89 3506.52 1250.43C3487.54 1237.97 3472.85 1221.06 3462.47 1199.7C3452.38 1178.34 3447.34 1154.31 3447.34 1127.61V742.24C3447.34 715.243 3452.38 691.213 3462.47 670.15C3472.85 648.79 3487.54 631.88 3506.52 619.42C3525.81 606.96 3548.8 600.73 3575.5 600.73C3602.2 600.73 3625.04 606.96 3644.03 619.42C3663.31 631.88 3678 648.79 3688.08 670.15C3698.47 691.51 3703.66 715.54 3703.66 742.24V1127.61C3703.66 1154.31 3698.47 1178.34 3688.08 1199.7C3678 1221.06 3663.31 1237.97 3644.03 1250.43C3625.04 1262.89 3602.2 1269.12 3575.5 1269.12ZM3575.5 1175.67C3587.36 1175.67 3595.67 1170.77 3600.42 1160.98C3605.16 1150.9 3607.54 1139.77 3607.54 1127.61V742.24C3607.54 730.077 3605.02 719.1 3599.97 709.31C3594.93 699.223 3586.77 694.18 3575.5 694.18C3564.52 694.18 3556.36 699.223 3551.02 709.31C3545.98 719.1 3543.46 730.077 3543.46 742.24V1127.61C3543.46 1139.77 3545.98 1150.9 3551.02 1160.98C3556.07 1170.77 3564.22 1175.67 3575.5 1175.67ZM3770.36 1262V615.2H3890.92L3942.84 950.48L3947.24 984.8H3949L3953.4 950.48L4005.32 615.2H4125.88V1262H4037.88V828.16H4032.6L4029.08 855.44L3972.76 1262H3923.48L3867.16 855.44L3863.64 828.16H3858.36V1262H3770.36ZM4176.81 1262L4274.49 615.2H4390.65L4488.33 1262H4395.93L4378.33 1130H4286.81L4269.21 1262H4176.81ZM4300.01 1029.68H4365.13L4337.85 812.32L4335.21 778H4329.93L4327.29 812.32L4300.01 1029.68ZM4558.18 1262V712.88H4468.42V615.2H4742.98V712.88H4653.22V1262H4558.18ZM4787 1262V615.2H4882.04V1262H4787ZM5075.18 1269.04C5048.2 1269.04 5025.17 1263.03 5006.1 1251C4987.33 1238.68 4972.96 1221.96 4962.98 1200.84C4953.3 1179.72 4948.46 1155.81 4948.46 1129.12V748.08C4948.46 721.68 4953.45 697.92 4963.42 676.8C4973.69 655.68 4988.36 638.96 5007.42 626.64C5026.49 614.32 5049.08 608.16 5075.18 608.16C5094.84 608.16 5112.44 611.827 5127.98 619.16C5143.53 626.493 5156.73 636.613 5167.58 649.52C5178.73 662.133 5187.24 676.947 5193.1 693.96C5198.97 710.68 5201.9 728.72 5201.9 748.08V836.96H5113.02V748.08C5113.02 734.587 5110.24 723.293 5104.66 714.2C5099.09 705.107 5089.85 700.56 5076.94 700.56C5065.21 700.56 5056.7 705.253 5051.42 714.64C5046.14 724.027 5043.5 735.173 5043.5 748.08V1129.12C5043.5 1142.03 5046.29 1153.17 5051.86 1162.56C5057.73 1171.95 5066.09 1176.64 5076.94 1176.64C5090.14 1176.64 5099.38 1172.09 5104.66 1163C5110.24 1153.91 5113.02 1142.61 5113.02 1129.12V1040.24H5201.9V1129.12C5201.9 1155.52 5196.77 1179.28 5186.5 1200.4C5176.24 1221.52 5161.57 1238.24 5142.5 1250.56C5123.73 1262.88 5101.29 1269.04 5075.18 1269.04ZM5404.03 1262V615.2H5499.07C5535.15 615.2 5565.22 623.12 5589.27 638.96C5613.62 654.8 5631.81 677.24 5643.83 706.28C5655.86 735.32 5661.87 769.493 5661.87 808.8C5661.87 848.107 5655.57 881.987 5642.95 910.44C5630.34 938.893 5611.86 961.187 5587.51 977.32C5563.46 993.16 5533.98 1001.81 5499.07 1003.28V1262H5404.03ZM5499.07 906.48C5515.79 906.48 5528.99 903.253 5538.67 896.8C5548.35 890.053 5555.25 879.493 5559.35 865.12C5563.75 850.747 5565.95 832.267 5565.95 809.68C5565.95 786.8 5563.75 768.173 5559.35 753.8C5555.25 739.427 5548.21 728.867 5538.23 722.12C5528.55 715.373 5515.5 712 5499.07 712V906.48ZM5835.73 1269.04C5809.33 1269.04 5786.6 1262.88 5767.53 1250.56C5748.76 1238.24 5734.24 1221.52 5723.97 1200.4C5714 1179.28 5709.01 1155.52 5709.01 1129.12V748.08C5709.01 721.387 5714 697.627 5723.97 676.8C5734.24 655.68 5748.76 638.96 5767.53 626.64C5786.6 614.32 5809.33 608.16 5835.73 608.16C5862.13 608.16 5884.72 614.32 5903.49 626.64C5922.56 638.96 5937.08 655.68 5947.05 676.8C5957.32 697.92 5962.45 721.68 5962.45 748.08V1129.12C5962.45 1155.52 5957.32 1179.28 5947.05 1200.4C5937.08 1221.52 5922.56 1238.24 5903.49 1250.56C5884.72 1262.88 5862.13 1269.04 5835.73 1269.04ZM5835.73 1176.64C5847.46 1176.64 5855.68 1171.8 5860.37 1162.12C5865.06 1152.15 5867.41 1141.15 5867.41 1129.12V748.08C5867.41 736.053 5864.92 725.2 5859.93 715.52C5854.94 705.547 5846.88 700.56 5835.73 700.56C5824.88 700.56 5816.81 705.547 5811.53 715.52C5806.54 725.2 5804.05 736.053 5804.05 748.08V1129.12C5804.05 1141.15 5806.54 1152.15 5811.53 1162.12C5816.52 1171.8 5824.58 1176.64 5835.73 1176.64ZM6143.2 1269.04C6117.09 1269.04 6095.39 1264.79 6078.08 1256.28C6060.77 1247.48 6047.13 1234.87 6037.16 1218.44C6027.19 1202.01 6020 1182.21 6015.6 1159.04C6011.49 1135.87 6009.44 1109.76 6009.44 1080.72L6102.72 1071.92C6102.72 1086 6103.16 1099.64 6104.04 1112.84C6105.21 1125.75 6107.12 1137.48 6109.76 1148.04C6112.69 1158.31 6116.8 1166.52 6122.08 1172.68C6127.65 1178.84 6134.69 1181.92 6143.2 1181.92C6157.28 1181.92 6167.25 1175.47 6173.12 1162.56C6178.99 1149.36 6181.92 1133.52 6181.92 1115.04C6181.92 1096.56 6177.08 1077.35 6167.4 1057.4C6157.72 1037.45 6146.13 1018.53 6132.64 1000.64C6109.76 970.133 6089.67 941.827 6072.36 915.72C6055.35 889.613 6042 863.947 6032.32 838.72C6022.93 813.493 6018.24 787.093 6018.24 759.52C6018.24 737.813 6021.03 717.867 6026.6 699.68C6032.17 681.2 6040.24 665.213 6050.8 651.72C6061.65 637.933 6074.71 627.227 6089.96 619.6C6105.21 611.973 6122.67 608.16 6142.32 608.16C6166.67 608.16 6187.2 612.267 6203.92 620.48C6220.93 628.693 6234.57 640.427 6244.84 655.68C6255.4 670.933 6263.03 689.12 6267.72 710.24C6272.71 731.067 6275.2 754.24 6275.2 779.76L6181.92 788.56C6181.92 777.707 6181.33 766.853 6180.16 756C6179.28 744.853 6177.52 734.733 6174.88 725.64C6172.24 716.547 6168.43 709.213 6163.44 703.64C6158.45 698.067 6152 695.28 6144.08 695.28C6131.76 695.28 6123.25 700.56 6118.56 711.12C6113.87 721.387 6111.52 736.053 6111.52 755.12C6111.52 779.76 6118.12 803.52 6131.32 826.4C6144.52 849.28 6162.27 875.973 6184.56 906.48C6211.25 942.56 6232.96 975.707 6249.68 1005.92C6266.69 1036.13 6275.2 1069.57 6275.2 1106.24C6275.2 1129.41 6272.71 1150.97 6267.72 1170.92C6262.73 1190.57 6254.81 1207.73 6243.96 1222.4C6233.4 1237.07 6219.76 1248.51 6203.04 1256.72C6186.61 1264.93 6166.67 1269.04 6143.2 1269.04ZM6389.5 1262V712.88H6299.74V615.2H6574.3V712.88H6484.54V1262H6389.5Z" fill="#DE595C"/>
<path d="M1788.83 955H1734.69C1733.28 955 1732.58 954.219 1732.58 952.656V678.906H1670.23C1668.67 678.906 1667.89 678.125 1667.89 676.562L1668.36 622.891C1668.36 621.641 1668.98 621.016 1670.23 621.016H1852.58C1854.3 621.016 1855.16 621.641 1855.16 622.891V676.562C1855.16 678.125 1854.53 678.906 1853.28 678.906H1790.23L1790.7 952.656C1790.7 954.219 1790.08 955 1788.83 955ZM1934.84 955H1880.47C1879.22 955 1878.59 954.219 1878.59 952.656L1879.06 622.891C1879.06 621.641 1879.84 621.016 1881.41 621.016H1934.84C1936.41 621.016 1937.19 621.641 1937.19 622.891L1936.72 753.438H2008.67V622.891C2008.67 621.641 2009.3 621.016 2010.55 621.016H2063.98C2065.55 621.016 2066.33 621.641 2066.33 622.891L2067.26 952.656C2067.26 954.219 2066.48 955 2064.92 955H2011.01C2009.45 955 2008.67 954.219 2008.67 952.656V811.562H1936.72V952.656C1936.72 954.219 1936.09 955 1934.84 955ZM2263.44 955H2108.28C2107.03 955 2106.41 954.219 2106.41 952.656L2106.87 622.891C2106.87 621.641 2107.5 621.016 2108.75 621.016H2262.97C2264.22 621.016 2264.84 621.797 2264.84 623.359V677.031C2264.84 678.281 2264.22 678.906 2262.97 678.906H2164.53V753.906H2262.97C2264.22 753.906 2264.84 754.531 2264.84 755.781L2265.31 810.156C2265.31 811.406 2264.69 812.031 2263.44 812.031H2164.53V895.938H2263.44C2264.69 895.938 2265.31 896.719 2265.31 898.281V953.125C2265.31 954.375 2264.69 955 2263.44 955Z" fill="#1E1F24"/>
<rect x="62.5" y="62.5" width="1197" height="1771" rx="598.5" stroke="#1E1F24" stroke-width="125"/>
<path d="M433.56 521.918L567.831 461.539C598.965 447.538 633.727 443.731 667.154 450.66L780.975 474.255C817.635 481.855 850.532 501.918 874.07 531.033L939.149 611.529C957.756 634.544 969.702 662.216 973.692 691.541L990.497 815.071C991.838 824.929 990.676 834.966 987.117 844.256C976.084 873.055 988.987 905.501 1016.78 918.859L1022.08 921.405C1044.82 932.333 1059.29 955.331 1059.29 980.562V990.8V1006.48C1059.29 1032.83 1043.28 1056.54 1018.83 1066.39L1010.45 1069.77C999.038 1074.37 986.216 1073.97 975.102 1068.69L942.208 1053.04C928.275 1046.41 912.189 1056.57 912.189 1072C912.189 1075.28 912.957 1078.51 914.432 1081.44L928.715 1109.8C932.816 1117.95 933.049 1127.5 929.35 1135.83C920.915 1154.84 896.322 1159.98 880.982 1145.94L866.181 1132.39L827.949 1050.09L802.174 990.809C797.784 980.713 795.004 969.992 793.933 959.036L793.039 949.888C788.813 906.641 755.428 871.963 712.372 866.098C696.588 863.948 681.612 857.812 668.856 848.27L664.671 845.138C651.426 835.229 640.497 822.555 632.644 807.996L625.511 794.77C619.016 782.729 611.022 771.559 601.719 761.527L566.157 723.176L521.86 686.391C514.47 680.255 506.549 674.787 498.19 670.054L479.174 659.286C464.461 650.955 451.144 640.371 439.704 627.921L436.672 624.62C418.726 605.087 405.851 581.446 399.178 555.774L395.22 540.548L433.56 521.918Z" fill="#1E1F24"/>
<path d="M510.753 1355.95V1250.97M866.181 1132.39L880.982 1145.94C896.322 1159.98 920.915 1154.84 929.35 1135.83V1135.83C933.049 1127.5 932.816 1117.95 928.715 1109.8L914.433 1081.44C912.957 1078.51 912.189 1075.28 912.189 1072V1072C912.189 1056.57 928.275 1046.41 942.208 1053.04L975.102 1068.69C986.216 1073.97 999.038 1074.37 1010.45 1069.77L1018.83 1066.39C1043.28 1056.54 1059.29 1032.83 1059.29 1006.48V990.8V980.562C1059.29 955.331 1044.82 932.333 1022.08 921.405L1016.78 918.859C988.987 905.501 976.084 873.055 987.117 844.256V844.256C990.676 834.966 991.838 824.929 990.497 815.071L973.692 691.541C969.702 662.216 957.756 634.544 939.149 611.529L874.07 531.033C850.532 501.918 817.636 481.855 780.975 474.255L667.154 450.66C633.727 443.731 598.965 447.538 567.831 461.539L433.56 521.918L395.22 540.548M866.181 1132.39L878.268 1185.67C884.978 1215.25 907.576 1238.65 936.906 1246.38V1246.38C948.37 1249.41 959.035 1254.9 968.156 1262.47L1034.37 1317.45C1040.82 1322.8 1047.7 1327.61 1054.95 1331.81V1331.81C1123.1 1371.33 1149.09 1456.81 1114.48 1527.57L1074.81 1608.67L1031.61 1721.1M866.181 1132.39L827.949 1050.09L802.174 990.809C797.784 980.713 795.004 969.992 793.933 959.036L793.039 949.888C788.813 906.641 755.428 871.963 712.372 866.098V866.098C696.588 863.948 681.612 857.812 668.856 848.269L664.671 845.138C651.426 835.229 640.497 822.555 632.644 807.996L625.511 794.77C619.016 782.729 611.022 771.559 601.719 761.527L566.157 723.176L521.86 686.391C514.47 680.255 506.549 674.787 498.19 670.054L479.174 659.286C464.461 650.955 451.144 640.371 439.704 627.921L436.672 624.62C418.726 605.087 405.851 581.446 399.178 555.774L395.22 540.548M275.529 1721.1L172.64 1542.68C166.79 1532.53 162.245 1521.69 159.112 1510.4V1510.4C141.552 1447.16 170.594 1380.25 228.783 1349.89L275.529 1325.49L444.82 1261.45C463.135 1254.52 482.556 1250.97 502.138 1250.97H510.753M510.753 1250.97V1250.97C510.753 1205.33 481.488 1164.83 438.153 1150.51L403.157 1138.94C373.778 1129.23 353.937 1101.77 353.937 1070.83V1070.83V1061.33C353.937 1053.85 353.272 1046.39 351.949 1039.03L341.54 981.088C338.659 965.052 326.265 952.408 310.29 949.208V949.208C285.076 944.156 271.259 916.817 282.145 893.52L328.562 794.19C333.999 782.556 337.621 770.158 339.304 757.427L353.937 646.712V609.844C353.937 605.058 354.405 600.284 355.333 595.589L359.396 575.042C362.929 557.173 377.23 543.403 395.22 540.548V540.548" stroke="#1E1F24" stroke-width="54"/>
<path d="M457.268 741.227C460.187 739.403 463.89 739.403 466.808 741.227L509.827 768.114C515.467 771.639 515.467 779.853 509.827 783.378L466.808 810.265C463.89 812.089 460.187 812.089 457.268 810.265L414.249 783.378C408.609 779.853 408.609 771.639 414.249 768.114L457.268 741.227Z" fill="#1E1F24"/>
</svg>
