<svg width="32" height="32" viewBox="0 0 32 32" fill="none" xmlns="http://www.w3.org/2000/svg">
<mask id="mask0_2265_635" style="mask-type:alpha" maskUnits="userSpaceOnUse" x="0" y="0" width="32" height="32">
<rect width="32" height="32" fill="#D9D9D9"/>
</mask>
<g mask="url(#mask0_2265_635)">
<path d="M16.0002 26.1994L13.5335 28.066C13.2668 28.266 13.0002 28.2716 12.7335 28.0827C12.4668 27.8938 12.3891 27.6438 12.5002 27.3327L13.4668 24.266L11.0335 22.5327C10.7668 22.3549 10.6891 22.1105 10.8002 21.7994C10.9113 21.4882 11.1224 21.3327 11.4335 21.3327H14.4002L15.3335 18.266L10.6002 15.466C10.2002 15.2216 9.88905 14.8994 9.66683 14.4994C9.44461 14.0994 9.3335 13.6438 9.3335 13.1327V5.33268C9.3335 4.59935 9.59461 3.97157 10.1168 3.44935C10.6391 2.92713 11.2668 2.66602 12.0002 2.66602H20.0002C20.7335 2.66602 21.3613 2.92713 21.8835 3.44935C22.4057 3.97157 22.6668 4.59935 22.6668 5.33268V13.1327C22.6668 13.6438 22.5557 14.0994 22.3335 14.4994C22.1113 14.8994 21.8002 15.2216 21.4002 15.466L16.6668 18.266L17.6002 21.3327H20.5668C20.8779 21.3327 21.0891 21.4882 21.2002 21.7994C21.3113 22.1105 21.2335 22.3549 20.9668 22.5327L18.5335 24.266L19.5002 27.3327C19.6113 27.6438 19.5335 27.8938 19.2668 28.0827C19.0002 28.2716 18.7335 28.266 18.4668 28.066L16.0002 26.1994ZM14.6668 5.33268V14.7327L16.0002 15.5327L17.3335 14.7327V5.33268H14.6668Z" fill="#3F2525"/>
</g>
</svg>
